<svg xmlns="http://www.w3.org/2000/svg" xmlns:xlink="http://www.w3.org/1999/xlink" width="64" height="64" viewBox="0 0 64 64"><defs><path id="a" d="M.06 64V.04H64V64z"/></defs><g fill="none" fill-rule="evenodd"><mask id="b" fill="#fff"><use xlink:href="#a"/></mask><path fill="#73BBA3" d="M0 32C0 14.327 14.327 0 32 0c17.673 0 32 14.327 32 32 0 17.673-14.327 32-32 32C14.327 64 0 49.673 0 32" mask="url(#b)"/><path fill="#629986" d="M32 54c-1.181 0-2.363-.57-3.259-1.71l-14.27-18.145C12.679 31.865 13.439 30 16.162 30H24V18a4 4 0 0 1 4-4h8a4 4 0 0 1 4 4v12h7.839c2.722 0 3.482 1.865 1.69 4.145L35.259 52.29C34.363 53.43 33.181 54 32 54"/><path fill="#FFFFFE" d="M24 16a4 4 0 0 1 4-4h8a4 4 0 0 1 4 4v24a4 4 0 0 1-4 4h-8a4 4 0 0 1-4-4V16"/><path fill="#FFFFFE" d="M47.839 28c2.722 0 3.482 1.865 1.69 4.145L35.259 50.29c-1.792 2.28-4.726 2.28-6.518 0l-14.27-18.145C12.679 29.865 13.439 28 16.162 28h31.677"/></g></svg>